<svg width="189" height="43" viewBox="0 0 189 43" fill="none" xmlns="http://www.w3.org/2000/svg">
<path d="M6.5 0H14.5V5V38V43H6.5V38H10.5V5H6.5V0Z" fill="url(#paint0_linear_108_1245)"/>
<rect x="0.5" y="10" width="4" height="22" fill="#AD1AAF"/>
<rect width="160" height="43" transform="translate(14.5)" fill="#AD1AAF"/>
<path d="M32.2272 24.156V17.424C32.2272 15.528 33.1692 14.58 35.0532 14.58H40.0572L40.9752 15.3V16.236H35.0712C34.3872 16.236 34.0452 16.572 34.0452 17.244V24.336C34.0452 25.008 34.3872 25.344 35.0712 25.344H40.9752V26.28L40.0572 27H35.0532C33.1692 27 32.2272 26.052 32.2272 24.156ZM43.1399 24.228V20.358C43.1399 18.522 44.0579 17.604 45.8939 17.604H48.4139C50.2499 17.604 51.1679 18.522 51.1679 20.358V24.228C51.1679 26.076 50.2499 27 48.4139 27H45.8939C44.0579 27 43.1399 26.076 43.1399 24.228ZM44.8859 24.408C44.8859 25.116 45.2399 25.47 45.9479 25.47H48.3779C49.0739 25.47 49.4219 25.116 49.4219 24.408V20.178C49.4219 19.482 49.0739 19.134 48.3779 19.134H45.9479C45.2399 19.134 44.8859 19.482 44.8859 20.178V24.408ZM53.8308 27V17.604H58.9248C60.7608 17.604 61.6788 18.522 61.6788 20.358V27H59.9328V20.178C59.9328 19.482 59.5848 19.134 58.8888 19.134H55.5768V27H53.8308ZM64.4128 27V17.604H69.5068C71.3428 17.604 72.2608 18.522 72.2608 20.358V27H70.5148V20.178C70.5148 19.482 70.1668 19.134 69.4708 19.134H66.1588V27H64.4128ZM74.8508 24.228V20.358C74.8508 18.522 75.7688 17.604 77.6048 17.604H79.9448C81.7808 17.604 82.6988 18.522 82.6988 20.358V22.95H76.5968V24.408C76.5968 25.116 76.9508 25.47 77.6588 25.47H82.3388V26.388L81.5288 27H77.6048C75.7688 27 74.8508 26.076 74.8508 24.228ZM76.5968 21.582H80.9528V20.178C80.9528 19.482 80.6048 19.134 79.9088 19.134H77.6588C76.9508 19.134 76.5968 19.482 76.5968 20.178V21.582ZM85.2219 24.228V20.358C85.2219 18.522 86.1399 17.604 87.9759 17.604H91.4499L92.2779 18.216V19.134H88.0299C87.3219 19.134 86.9679 19.482 86.9679 20.178V24.408C86.9679 25.116 87.3219 25.47 88.0299 25.47H92.2779V26.388L91.4499 27H87.9759C86.1399 27 85.2219 26.076 85.2219 24.228ZM94.4345 24.228V14.58H96.1805V17.604H99.5105V19.134H96.1805V24.408C96.1805 25.116 96.5345 25.47 97.2425 25.47H99.6905V26.388L98.8625 27H97.1885C95.3525 27 94.4345 26.076 94.4345 24.228ZM105.191 14.958L105.461 14.58H106.937L109.367 25.344H109.583L112.139 15.894H113.957L116.495 25.344H116.729L119.141 14.58H120.617L120.887 14.958L118.151 27H115.181L113.039 18.99L110.915 27H107.945L105.191 14.958ZM124.53 27C122.682 27 121.758 26.082 121.758 24.246C121.758 22.41 122.682 21.492 124.53 21.492H127.572V20.178C127.572 19.482 127.224 19.134 126.528 19.134H122.676V18.216L123.504 17.604H126.564C128.4 17.604 129.318 18.522 129.318 20.358V27H124.53ZM123.504 24.408C123.504 25.116 123.858 25.47 124.566 25.47H127.572V22.86H124.566C123.858 22.86 123.504 23.214 123.504 23.922V24.408ZM131.981 24.174V13.68H133.727V24.354C133.727 25.158 134.135 25.59 134.951 25.65V27.162C132.971 27.162 131.981 26.166 131.981 24.174ZM136.938 24.174V13.68H138.684V24.354C138.684 25.158 139.092 25.59 139.908 25.65V27.162C137.928 27.162 136.938 26.166 136.938 24.174ZM141.823 24.228V20.358C141.823 18.522 142.741 17.604 144.577 17.604H146.917C148.753 17.604 149.671 18.522 149.671 20.358V22.95H143.569V24.408C143.569 25.116 143.923 25.47 144.631 25.47H149.311V26.388L148.501 27H144.577C142.741 27 141.823 26.076 141.823 24.228ZM143.569 21.582H147.925V20.178C147.925 19.482 147.577 19.134 146.881 19.134H144.631C143.923 19.134 143.569 19.482 143.569 20.178V21.582ZM152.267 24.228V14.58H154.013V17.604H157.343V19.134H154.013V24.408C154.013 25.116 154.367 25.47 155.075 25.47H157.523V26.388L156.695 27H155.021C153.185 27 152.267 26.076 152.267 24.228Z" fill="white"/>
<path d="M182.5 0H174.5V5V38V43H182.5V38H178.5V5H182.5V0Z" fill="url(#paint1_linear_108_1245)"/>
<rect width="4" height="22" transform="matrix(-1 0 0 1 188.5 10)" fill="#AD1AAF"/>
<defs>
<linearGradient id="paint0_linear_108_1245" x1="34.5" y1="3.99999" x2="194.5" y2="43" gradientUnits="userSpaceOnUse">
<stop stop-color="#AD1AAF"/>
<stop offset="0.619792" stop-color="#AD1AAF"/>
<stop offset="1" stop-color="#AD1AAF"/>
</linearGradient>
<linearGradient id="paint1_linear_108_1245" x1="154.5" y1="3.99999" x2="-5.50004" y2="43" gradientUnits="userSpaceOnUse">
<stop stop-color="#AD1AAF"/>
<stop offset="0.619792" stop-color="#AD1AAF"/>
<stop offset="1" stop-color="#AD1AAF"/>
</linearGradient>
</defs>
</svg>
