<svg width="225" height="70" viewBox="0 0 225 70" fill="none" xmlns="http://www.w3.org/2000/svg">
<rect x="0.5" y="14.5283" width="4.59487" height="42.2642" fill="#AD1AAF"/>
<rect x="6" y="0.5" width="213.81" height="69" fill="#AD1AAF" fill-opacity="0.05" stroke="#AD1AAF"/>
<path d="M79.674 37.524V29.296C79.674 26.9787 80.8253 25.82 83.128 25.82H89.244L90.366 26.7V27.844H83.15C82.314 27.844 81.896 28.2547 81.896 29.076V37.744C81.896 38.5653 82.314 38.976 83.15 38.976H90.366V40.12L89.244 41H83.128C80.8253 41 79.674 39.8413 79.674 37.524ZM93.0997 41V30.88C93.613 29.9707 94.5883 29.516 96.0257 29.516H98.2917L99.3037 30.264V31.386H96.4437C95.8717 31.386 95.4683 31.5327 95.2337 31.826V41H93.0997ZM101.412 37.612V32.882C101.412 30.638 102.534 29.516 104.778 29.516H107.638C109.882 29.516 111.004 30.638 111.004 32.882V36.05H103.546V37.832C103.546 38.6973 103.979 39.13 104.844 39.13H110.564V40.252L109.574 41H104.778C102.534 41 101.412 39.8707 101.412 37.612ZM103.546 34.378H108.87V32.662C108.87 31.8113 108.445 31.386 107.594 31.386H104.844C103.979 31.386 103.546 31.8113 103.546 32.662V34.378ZM117.036 41C114.777 41 113.648 39.878 113.648 37.634C113.648 35.39 114.777 34.268 117.036 34.268H120.754V32.662C120.754 31.8113 120.329 31.386 119.478 31.386H114.77V30.264L115.782 29.516H119.522C121.766 29.516 122.888 30.638 122.888 32.882V41H117.036ZM115.782 37.832C115.782 38.6973 116.215 39.13 117.08 39.13H120.754V35.94H117.08C116.215 35.94 115.782 36.3727 115.782 37.238V37.832ZM126.143 37.612V25.82H128.277V29.516H132.347V31.386H128.277V37.832C128.277 38.6973 128.709 39.13 129.575 39.13H132.567V40.252L131.555 41H129.509C127.265 41 126.143 39.8707 126.143 37.612ZM134.906 37.612V32.882C134.906 30.638 136.028 29.516 138.272 29.516H141.132C143.376 29.516 144.498 30.638 144.498 32.882V36.05H137.04V37.832C137.04 38.6973 137.473 39.13 138.338 39.13H144.058V40.252L143.068 41H138.272C136.028 41 134.906 39.8707 134.906 37.612ZM137.04 34.378H142.364V32.662C142.364 31.8113 141.939 31.386 141.088 31.386H138.338C137.473 31.386 137.04 31.8113 137.04 32.662V34.378Z" fill="white"/>
<rect width="4.59487" height="42.2642" transform="matrix(-1 0 0 1 224.5 14.5283)" fill="#AD1AAF"/>
</svg>
