<svg width="261" height="70" viewBox="0 0 261 70" fill="none" xmlns="http://www.w3.org/2000/svg">
<path d="M8.37891 0H18.884V8.09255V61.5034V69.596H8.37891V61.5034H13.6314V8.09255H8.37891V0Z" fill="url(#paint0_linear_108_1357)"/>
<rect x="0.5" y="13.1313" width="5.25253" height="44.6465" fill="#AD1AAF"/>
<rect width="224" height="70" transform="translate(18.5)" fill="#AD1AAF"/>
<path d="M64.4165 41V25.82H74.4485V27.844H66.6385V32.068H73.7885V34.092H66.6385V38.976H74.4485V41H64.4165ZM76.181 40.626L80.163 35.148L76.335 29.89L76.511 29.516H78.491L81.373 33.586L84.277 29.516H86.235L86.433 29.89L82.605 35.148L86.565 40.626L86.389 41H84.409L81.373 36.732L78.337 41H76.379L76.181 40.626ZM88.925 45.4V29.516H95.151C97.395 29.516 98.517 30.638 98.517 32.882V37.612C98.517 39.8707 97.395 41 95.151 41H91.059V45.4H88.925ZM91.059 39.13H95.107C95.9577 39.13 96.383 38.6973 96.383 37.832V32.662C96.383 31.8113 95.9577 31.386 95.107 31.386H91.059V39.13ZM101.685 37.546V24.72H103.819V37.766C103.819 38.7487 104.317 39.2767 105.315 39.35V41.198C102.895 41.198 101.685 39.9807 101.685 37.546ZM107.655 37.612V32.882C107.655 30.638 108.777 29.516 111.021 29.516H114.101C116.345 29.516 117.467 30.638 117.467 32.882V37.612C117.467 39.8707 116.345 41 114.101 41H111.021C108.777 41 107.655 39.8707 107.655 37.612ZM109.789 37.832C109.789 38.6973 110.222 39.13 111.087 39.13H114.057C114.908 39.13 115.333 38.6973 115.333 37.832V32.662C115.333 31.8113 114.908 31.386 114.057 31.386H111.087C110.222 31.386 109.789 31.8113 109.789 32.662V37.832ZM120.634 41V30.88C121.147 29.9707 122.123 29.516 123.56 29.516H125.826L126.838 30.264V31.386H123.978C123.406 31.386 123.003 31.5327 122.768 31.826V41H120.634ZM128.946 37.612V32.882C128.946 30.638 130.068 29.516 132.312 29.516H135.172C137.416 29.516 138.538 30.638 138.538 32.882V36.05H131.08V37.832C131.08 38.6973 131.513 39.13 132.378 39.13H138.098V40.252L137.108 41H132.312C130.068 41 128.946 39.8707 128.946 37.612ZM131.08 34.378H136.404V32.662C136.404 31.8113 135.979 31.386 135.128 31.386H132.378C131.513 31.386 131.08 31.8113 131.08 32.662V34.378ZM147.303 41V25.82H150.119L154.959 36.116L159.799 25.82H162.637V41H160.393V29.428L155.971 38.866H153.969L149.525 29.428V41H147.303ZM166.093 37.612V32.882C166.093 30.638 167.215 29.516 169.459 29.516H172.539C174.783 29.516 175.905 30.638 175.905 32.882V37.612C175.905 39.8707 174.783 41 172.539 41H169.459C167.215 41 166.093 39.8707 166.093 37.612ZM168.227 37.832C168.227 38.6973 168.659 39.13 169.525 39.13H172.495C173.345 39.13 173.771 38.6973 173.771 37.832V32.662C173.771 31.8113 173.345 31.386 172.495 31.386H169.525C168.659 31.386 168.227 31.8113 168.227 32.662V37.832ZM179.071 41V30.88C179.585 29.9707 180.56 29.516 181.997 29.516H184.263L185.275 30.264V31.386H182.415C181.843 31.386 181.44 31.5327 181.205 31.826V41H179.071ZM187.384 37.612V32.882C187.384 30.638 188.506 29.516 190.75 29.516H193.61C195.854 29.516 196.976 30.638 196.976 32.882V36.05H189.518V37.832C189.518 38.6973 189.95 39.13 190.816 39.13H196.536V40.252L195.546 41H190.75C188.506 41 187.384 39.8707 187.384 37.612ZM189.518 34.378H194.842V32.662C194.842 31.8113 194.416 31.386 193.566 31.386H190.816C189.95 31.386 189.518 31.8113 189.518 32.662V34.378Z" fill="white"/>
<path d="M252.621 0H242.116V8.09255V61.5034V69.596H252.621V61.5034H247.369V8.09255H252.621V0Z" fill="url(#paint1_linear_108_1357)"/>
<rect width="5.25253" height="42.0202" transform="matrix(-1 0 0 1 260.5 14.4443)" fill="#AD1AAF"/>
<defs>
<linearGradient id="paint0_linear_108_1357" x1="45.1466" y1="6.47402" x2="259.353" y2="48.8354" gradientUnits="userSpaceOnUse">
<stop stop-color="#AD1AAF"/>
<stop offset="0.619792" stop-color="#AD1AAF"/>
<stop offset="1" stop-color="#AD1AAF"/>
</linearGradient>
<linearGradient id="paint1_linear_108_1357" x1="215.853" y1="6.47402" x2="1.64675" y2="48.8354" gradientUnits="userSpaceOnUse">
<stop stop-color="#AD1AAF"/>
<stop offset="0.619792" stop-color="#AD1AAF"/>
<stop offset="1" stop-color="#AD1AAF"/>
</linearGradient>
</defs>
</svg>
